<svg version="1.1" id="Layer_1" xmlns="http://www.w3.org/2000/svg" xmlns:xlink="http://www.w3.org/1999/xlink" x="0px" y="0px"
	 width="100%" viewBox="0 0 612 612" enable-background="new 0 0 612 612" xml:space="preserve">
<path fill="#020202" opacity="1.000000" stroke="none" 
	d="
M2.000000,1.000000 
	C205.620102,1.000000 409.240204,1.000000 612.930176,1.000000 
	C612.930176,204.906784 612.930176,408.813599 612.930176,613.000000 
	C409.639893,613.000000 206.279648,613.000000 2.461440,612.540283 
	C2.002313,408.387054 2.001157,204.693527 2.000000,1.000000 
M458.365845,218.634827 
	C458.365845,218.634827 458.420807,218.603104 458.270111,217.914124 
	C454.355713,211.373123 450.411774,204.855835 445.176208,199.376282 
	C444.851959,199.642914 444.527679,199.909546 444.203430,200.176178 
	C448.373840,206.480209 452.544220,212.784241 456.792206,219.623138 
	C456.984863,219.919617 457.177551,220.216080 457.930420,221.437927 
	C458.092346,220.510910 458.254272,219.583893 458.365845,218.634827 
M446.955505,148.685104 
	C447.949371,149.530594 448.943237,150.376099 450.272858,151.880890 
	C488.033112,188.860153 509.628357,233.583755 514.096130,286.300415 
	C514.992432,296.876038 514.237488,307.584351 514.609558,318.218689 
	C514.672668,320.024963 516.301697,322.946808 517.716248,323.296906 
	C520.863831,324.075867 521.783997,321.358093 521.907654,318.598999 
	C521.930054,318.099823 521.952148,317.600586 521.967285,317.101166 
	C522.529175,298.547577 521.083069,280.158875 516.936523,262.054413 
	C506.968475,218.532700 485.931458,181.336441 452.754333,150.389450 
	C451.224152,149.158493 449.693939,147.927536 448.023865,146.273804 
	C447.849030,146.002655 447.600555,145.857437 446.982147,145.235947 
	C442.153534,141.443237 437.405762,137.539597 432.446716,133.925903 
	C430.973206,132.852158 428.906006,132.593094 426.484406,132.029510 
	C425.251678,131.173477 424.018921,130.317429 422.786194,129.461380 
	C422.935516,129.258743 423.084839,129.056107 423.234131,128.853485 
	C424.551300,129.888565 425.868469,130.923660 426.985046,132.635315 
	C433.259308,137.540390 439.533569,142.445465 445.961090,147.772949 
	C446.168304,148.019470 446.432922,148.142166 446.955505,148.685104 
M162.379990,466.875732 
	C164.578873,468.609161 166.777771,470.342560 169.350281,472.798279 
	C170.693253,473.523285 172.036209,474.248291 173.379181,474.973267 
	C173.707382,474.505280 174.035583,474.037323 174.363800,473.569336 
	C173.257874,472.619263 172.151947,471.669189 170.675766,470.116577 
	C168.922195,468.682037 167.168625,467.247528 165.141235,465.282745 
	C164.513657,464.824188 163.886063,464.365631 162.914398,463.316925 
	C120.608711,422.755035 97.834000,373.373718 95.796318,314.636536 
	C95.694595,311.704193 95.712212,308.422119 91.675766,308.674957 
	C88.055244,308.901733 88.102112,311.985291 88.268730,314.761047 
	C90.376060,349.868988 99.797020,382.786560 117.751091,413.144684 
	C129.342636,432.744507 143.327667,450.364899 160.904663,465.549866 
	C161.269623,465.786987 161.634583,466.024109 162.379990,466.875732 
M259.731140,503.036194 
	C266.705811,504.172607 273.680481,505.308990 280.655151,506.445404 
	C280.706665,506.184662 280.758148,505.923950 280.809631,505.663239 
	C273.859894,504.162506 266.910126,502.661743 259.249268,500.901733 
	C254.495728,499.611023 249.742188,498.320312 244.356033,496.703430 
	C182.806793,474.489807 140.748230,432.837097 118.979607,370.962952 
	C118.061783,368.354187 117.104340,365.379700 113.661407,366.522980 
	C109.907135,367.769684 110.978180,370.825714 112.017967,373.627045 
	C119.125664,392.776276 128.594208,410.647400 141.046005,426.865692 
	C168.001373,461.974731 202.394882,486.396729 245.672409,499.266602 
	C250.115952,500.417877 254.559479,501.569122 259.731140,503.036194 
M123.422569,351.868744 
	C123.428047,352.121918 123.433525,352.375092 123.438995,352.628265 
	C123.311317,352.622589 123.183647,352.616882 123.055969,352.611206 
	C123.084785,352.364044 123.113602,352.116852 122.872520,351.071136 
	C121.543571,342.649536 120.214615,334.227966 118.935883,324.896881 
	C119.392906,309.945892 118.181770,294.719360 120.597717,280.091919 
	C130.682266,219.034805 163.468796,173.619598 217.775650,143.828094 
	C220.170776,142.514175 222.998245,141.225662 221.197037,137.869568 
	C219.447205,134.609177 216.821198,135.943863 214.323273,137.284088 
	C147.396484,173.192123 107.667267,250.266830 116.948174,326.845367 
	C118.202103,333.854614 119.369720,340.881348 120.782097,347.858521 
	C121.067696,349.269379 122.278976,350.492828 123.422569,351.868744 
M392.836426,124.296295 
	C385.720184,121.419449 378.603943,118.542603 371.487671,115.665749 
	C371.279663,116.203445 371.071655,116.741135 370.863647,117.278831 
	C377.584961,120.168404 384.306305,123.057983 391.587860,126.330048 
	C424.061615,142.817917 450.315765,166.236145 470.119934,196.833801 
	C481.409393,214.276077 489.648987,233.070847 494.973602,253.145004 
	C495.794861,256.241241 497.255585,258.931732 500.710144,256.852539 
	C501.903534,256.134277 502.521393,252.573380 501.854248,250.945206 
	C495.884338,236.375031 490.788208,221.261536 483.119812,207.608215 
	C462.246216,170.443314 432.087494,142.805786 392.836426,124.296295 
M487.082336,262.606201 
	C497.004303,307.756226 491.444244,350.898773 469.891632,391.808380 
	C456.808990,416.640961 438.687042,437.251007 416.082611,453.902863 
	C413.854858,455.543945 411.395172,457.338806 413.588715,460.348053 
	C415.814728,463.401886 418.289612,461.608337 420.434723,459.848114 
	C424.420105,456.577789 428.517639,453.422028 432.293365,449.921844 
	C469.975037,414.990021 490.965118,371.908417 494.683685,320.638519 
	C496.323181,298.033600 493.669983,275.788177 487.052460,254.071747 
	C486.689697,252.881287 485.721283,251.875366 485.034790,250.783539 
	C484.775085,250.961288 484.515411,251.139038 484.255707,251.316788 
	C485.150970,254.804962 486.046234,258.293121 487.082336,262.606201 
M133.260712,259.634247 
	C121.188057,305.933044 130.904938,352.666565 143.283005,375.401520 
	C143.175995,373.853363 143.250702,372.609772 142.969345,371.452759 
	C142.618576,370.010223 141.919754,368.656525 141.464584,367.234589 
	C120.115501,300.541321 132.301193,240.962234 179.442108,188.872742 
	C183.004822,184.936035 187.330322,181.685715 190.848831,177.715393 
	C191.868073,176.565262 191.311035,174.018234 191.476608,172.111572 
	C189.687729,172.163879 187.875748,172.068314 186.121506,172.342346 
	C185.434265,172.449722 184.865967,173.374756 184.261292,173.946198 
	C159.361572,197.476929 142.392151,225.744781 133.260712,259.634247 
M468.182953,237.180420 
	C465.459045,231.718903 462.735107,226.257401 460.011200,220.795883 
	C459.412628,221.091736 458.814056,221.387604 458.215454,221.683456 
	C458.860931,223.206558 459.458466,224.752060 460.158783,226.249527 
	C487.367798,284.430267 484.827148,341.145386 451.796661,396.362762 
	C451.113190,397.505371 449.910187,398.600677 449.831787,399.776825 
	C449.727631,401.339783 450.013428,403.715973 451.013855,404.349457 
	C452.065796,405.015442 454.339813,404.386627 455.736145,403.661682 
	C456.756561,403.131927 457.268066,401.557617 457.925720,400.402954 
	C487.805542,347.942780 491.418488,293.770874 468.182953,237.180420 
M180.376358,477.867767 
	C178.680542,476.756622 176.984711,475.645477 175.288895,474.534363 
	C174.949432,475.098419 174.609970,475.662506 174.270523,476.226562 
	C184.150558,484.257843 195.023819,490.692322 206.933701,495.468323 
	C198.291916,489.748169 189.650116,484.028015 180.376358,477.867767 
M312.041016,506.686127 
	C304.696472,506.686127 297.351929,506.686127 290.007355,506.686127 
	C290.012634,506.921600 290.017883,507.157074 290.023132,507.392548 
	C297.347748,507.392548 304.672363,507.392548 312.041016,506.686127 
M482.441193,242.873917 
	C481.915588,236.000626 478.220947,230.527634 475.634857,224.564804 
	C475.099030,224.801163 474.563232,225.037521 474.027405,225.273880 
	C476.754120,231.050797 479.480835,236.827728 482.441193,242.873917 
M442.343231,196.232162 
	C442.431915,196.763489 442.520599,197.294815 442.609283,197.826141 
	C442.742676,197.793625 442.876099,197.761108 443.009491,197.728592 
	C442.842712,197.310837 442.675964,196.893082 442.343231,196.232162 
M175.081100,473.865082 
	C174.557846,473.773132 174.034592,473.681183 173.511353,473.589233 
	C173.440826,474.003815 173.370300,474.418396 173.299789,474.832977 
	C173.968140,474.876953 174.636475,474.920929 175.081100,473.865082 
M474.474670,221.493958 
	C474.474670,221.493958 474.511505,221.499466 474.474670,221.493958 
z"/>
<path fill="#0D0D0D" opacity="1.000000" stroke="none" 
	d="
M1.500000,1.000000 
	C2.001157,204.693527 2.002313,408.387054 2.001728,612.540283 
	C1.666653,612.833374 1.056186,612.684082 1.044446,612.497192 
	C0.961003,611.169128 1.000000,609.833313 1.000000,608.500000 
	C1.000000,406.000000 1.000000,203.500000 1.500000,1.000000 
z"/>
<path fill="#EDEDED" opacity="1.000000" stroke="none" 
	d="
M487.011902,262.193756 
	C486.046234,258.293121 485.150970,254.804962 484.255707,251.316788 
	C484.515411,251.139038 484.775085,250.961288 485.034790,250.783539 
	C485.721283,251.875366 486.689697,252.881287 487.052460,254.071747 
	C493.669983,275.788177 496.323181,298.033600 494.683685,320.638519 
	C490.965118,371.908417 469.975037,414.990021 432.293365,449.921844 
	C428.517639,453.422028 424.420105,456.577789 420.434723,459.848114 
	C418.289612,461.608337 415.814728,463.401886 413.588715,460.348053 
	C411.395172,457.338806 413.854858,455.543945 416.082611,453.902863 
	C438.687042,437.251007 456.808990,416.640961 469.891632,391.808380 
	C491.444244,350.898773 497.004303,307.756226 487.011902,262.193756 
z"/>
<path fill="#EEEEEE" opacity="1.000000" stroke="none" 
	d="
M117.083458,325.976471 
	C107.667267,250.266830 147.396484,173.192123 214.323273,137.284088 
	C216.821198,135.943863 219.447205,134.609177 221.197037,137.869568 
	C222.998245,141.225662 220.170776,142.514175 217.775650,143.828094 
	C163.468796,173.619598 130.682266,219.034805 120.597717,280.091919 
	C118.181770,294.719360 119.392906,309.945892 118.462372,325.416962 
	C117.687065,325.950195 117.385262,325.963318 117.083458,325.976471 
z"/>
<path fill="#EEEEEE" opacity="1.000000" stroke="none" 
	d="
M133.402435,259.248566 
	C142.392151,225.744781 159.361572,197.476929 184.261292,173.946198 
	C184.865967,173.374756 185.434265,172.449722 186.121506,172.342346 
	C187.875748,172.068314 189.687729,172.163879 191.476608,172.111572 
	C191.311035,174.018234 191.868073,176.565262 190.848831,177.715393 
	C187.330322,181.685715 183.004822,184.936035 179.442108,188.872742 
	C132.301193,240.962234 120.115501,300.541321 141.464584,367.234589 
	C141.919754,368.656525 142.618576,370.010223 142.969345,371.452759 
	C143.250702,372.609772 143.175995,373.853363 143.283005,375.401520 
	C130.904938,352.666565 121.188057,305.933044 133.402435,259.248566 
z"/>
<path fill="#EEEEEE" opacity="1.000000" stroke="none" 
	d="
M453.036499,150.983551 
	C485.931458,181.336441 506.968475,218.532700 516.936523,262.054413 
	C521.083069,280.158875 522.529175,298.547577 521.967285,317.101166 
	C521.952148,317.600586 521.930054,318.099823 521.907654,318.598999 
	C521.783997,321.358093 520.863831,324.075867 517.716248,323.296906 
	C516.301697,322.946808 514.672668,320.024963 514.609558,318.218689 
	C514.237488,307.584351 514.992432,296.876038 514.096130,286.300415 
	C509.628357,233.583755 488.033112,188.860153 450.619476,151.488068 
	C451.656219,151.058029 452.346375,151.020798 453.036499,150.983551 
z"/>
<path fill="#ECECEC" opacity="1.000000" stroke="none" 
	d="
M245.012634,498.932098 
	C202.394882,486.396729 168.001373,461.974731 141.046005,426.865692 
	C128.594208,410.647400 119.125664,392.776276 112.017967,373.627045 
	C110.978180,370.825714 109.907135,367.769684 113.661407,366.522980 
	C117.104340,365.379700 118.061783,368.354187 118.979607,370.962952 
	C140.748230,432.837097 182.806793,474.489807 244.690918,497.183289 
	C245.021423,498.086151 245.017029,498.509125 245.012634,498.932098 
z"/>
<path fill="#EEEEEE" opacity="1.000000" stroke="none" 
	d="
M468.339539,237.527649 
	C491.418488,293.770874 487.805542,347.942780 457.925720,400.402954 
	C457.268066,401.557617 456.756561,403.131927 455.736145,403.661682 
	C454.339813,404.386627 452.065796,405.015442 451.013855,404.349457 
	C450.013428,403.715973 449.727631,401.339783 449.831787,399.776825 
	C449.910187,398.600677 451.113190,397.505371 451.796661,396.362762 
	C484.827148,341.145386 487.367798,284.430267 460.158783,226.249527 
	C459.458466,224.752060 458.860931,223.206558 458.215454,221.683456 
	C458.814056,221.387604 459.412628,221.091736 460.011200,220.795883 
	C462.735107,226.257401 465.459045,231.718903 468.339539,237.527649 
z"/>
<path fill="#EDEDED" opacity="1.000000" stroke="none" 
	d="
M160.785660,465.107635 
	C143.327667,450.364899 129.342636,432.744507 117.751091,413.144684 
	C99.797020,382.786560 90.376060,349.868988 88.268730,314.761047 
	C88.102112,311.985291 88.055244,308.901733 91.675766,308.674957 
	C95.712212,308.422119 95.694595,311.704193 95.796318,314.636536 
	C97.834000,373.373718 120.608711,422.755035 162.764557,463.735168 
	C162.005051,464.471466 161.395355,464.789551 160.785660,465.107635 
z"/>
<path fill="#ECECEC" opacity="1.000000" stroke="none" 
	d="
M393.259827,124.858727 
	C432.087494,142.805786 462.246216,170.443314 483.119812,207.608215 
	C490.788208,221.261536 495.884338,236.375031 501.854248,250.945206 
	C502.521393,252.573380 501.903534,256.134277 500.710144,256.852539 
	C497.255585,258.931732 495.794861,256.241241 494.973602,253.145004 
	C489.648987,233.070847 481.409393,214.276077 470.119934,196.833801 
	C450.315765,166.236145 424.061615,142.817917 391.494812,125.872375 
	C392.021088,125.229378 392.640472,125.044052 393.259827,124.858727 
z"/>
<path fill="#DADADA" opacity="1.000000" stroke="none" 
	d="
M180.692352,478.087830 
	C189.650116,484.028015 198.291916,489.748169 206.933701,495.468323 
	C195.023819,490.692322 184.150558,484.257843 174.270523,476.226562 
	C174.609970,475.662506 174.949432,475.098419 175.288895,474.534363 
	C176.984711,475.645477 178.680542,476.756622 180.692352,478.087830 
z"/>
<path fill="#D3D3D3" opacity="1.000000" stroke="none" 
	d="
M427.110870,131.960739 
	C428.906006,132.593094 430.973206,132.852158 432.446716,133.925903 
	C437.405762,137.539597 442.153534,141.443237 446.822815,145.722992 
	C446.378296,146.590210 446.093048,146.970383 445.807831,147.350540 
	C439.533569,142.445465 433.259308,137.540390 427.064026,132.295044 
	C427.143036,131.954773 427.110870,131.960739 427.110870,131.960739 
z"/>
<path fill="#C1C1C1" opacity="1.000000" stroke="none" 
	d="
M117.015816,326.410919 
	C117.385262,325.963318 117.687065,325.950195 118.437263,325.871704 
	C120.214615,334.227966 121.543571,342.649536 122.977013,351.466309 
	C123.081505,351.861450 123.063492,351.802673 123.063492,351.802673 
	C122.278976,350.492828 121.067696,349.269379 120.782097,347.858521 
	C119.369720,340.881348 118.202103,333.854614 117.015816,326.410919 
z"/>
<path fill="#CBCBCB" opacity="1.000000" stroke="none" 
	d="
M393.048126,124.577515 
	C392.640472,125.044052 392.021088,125.229378 391.214661,125.681137 
	C384.306305,123.057983 377.584961,120.168404 370.863647,117.278831 
	C371.071655,116.741135 371.279663,116.203445 371.487671,115.665749 
	C378.603943,118.542603 385.720184,121.419449 393.048126,124.577515 
z"/>
<path fill="#D2D2D2" opacity="1.000000" stroke="none" 
	d="
M456.714600,219.088287 
	C452.544220,212.784241 448.373840,206.480209 444.203430,200.176178 
	C444.527679,199.909546 444.851959,199.642914 445.176208,199.376282 
	C450.411774,204.855835 454.355713,211.373123 457.917816,218.377869 
	C457.281891,218.923843 456.998260,219.006058 456.714600,219.088287 
z"/>
<path fill="#BCBCBC" opacity="1.000000" stroke="none" 
	d="
M259.960388,501.161011 
	C266.910126,502.661743 273.859894,504.162506 280.809631,505.663239 
	C280.758148,505.923950 280.706665,506.184662 280.655151,506.445404 
	C273.680481,505.308990 266.705811,504.172607 259.479004,502.677582 
	C259.471405,501.932983 259.715912,501.546997 259.960388,501.161011 
z"/>
<path fill="#4E4E4E" opacity="1.000000" stroke="none" 
	d="
M312.018982,507.039337 
	C304.672363,507.392548 297.347748,507.392548 290.023132,507.392548 
	C290.017883,507.157074 290.012634,506.921600 290.007355,506.686127 
	C297.351929,506.686127 304.696472,506.686127 312.018982,507.039337 
z"/>
<path fill="#BDBDBD" opacity="1.000000" stroke="none" 
	d="
M482.324371,242.739288 
	C479.480835,236.827728 476.754120,231.050797 474.027405,225.273880 
	C474.563232,225.037521 475.099030,224.801163 475.634857,224.564804 
	C478.220947,230.527634 481.915588,236.000626 482.324371,242.739288 
z"/>
<path fill="#D7D7D7" opacity="1.000000" stroke="none" 
	d="
M259.604828,501.031372 
	C259.715912,501.546997 259.471405,501.932983 259.114960,502.519684 
	C254.559479,501.569122 250.115952,500.417877 245.342529,499.099365 
	C245.017029,498.509125 245.021423,498.086151 245.007233,497.346375 
	C249.742188,498.320312 254.495728,499.611023 259.604828,501.031372 
z"/>
<path fill="#EDEDED" opacity="1.000000" stroke="none" 
	d="
M165.415054,465.812988 
	C167.168625,467.247528 168.922195,468.682037 170.463257,470.556641 
	C169.826050,471.356445 169.401352,471.716217 168.976654,472.075989 
	C166.777771,470.342560 164.578873,468.609161 162.757721,466.484070 
	C163.895309,465.999237 164.655182,465.906097 165.415054,465.812988 
z"/>
<path fill="#D3D3D3" opacity="1.000000" stroke="none" 
	d="
M452.895416,150.686493 
	C452.346375,151.020798 451.656219,151.058029 450.451599,151.158432 
	C448.943237,150.376099 447.949371,149.530594 447.147461,148.232910 
	C447.614227,147.419342 447.888977,147.057968 448.163757,146.696579 
	C449.693939,147.927536 451.224152,149.158493 452.895416,150.686493 
z"/>
<path fill="#D3D3D3" opacity="1.000000" stroke="none" 
	d="
M427.164337,131.956757 
	C425.868469,130.923660 424.551300,129.888565 423.234131,128.853485 
	C423.084839,129.056107 422.935516,129.258743 422.786194,129.461380 
	C424.018921,130.317429 425.251678,131.173477 426.797638,131.995117 
	C427.110870,131.960739 427.143036,131.954773 427.164337,131.956757 
z"/>
<path fill="#D2D2D2" opacity="1.000000" stroke="none" 
	d="
M442.426208,196.353745 
	C442.675964,196.893082 442.842712,197.310837 443.009491,197.728592 
	C442.876099,197.761108 442.742676,197.793625 442.609283,197.826141 
	C442.520599,197.294815 442.431915,196.763489 442.426208,196.353745 
z"/>
<path fill="#DADADA" opacity="1.000000" stroke="none" 
	d="
M169.163452,472.437134 
	C169.401352,471.716217 169.826050,471.356445 170.648392,470.857910 
	C172.151947,471.669189 173.257874,472.619263 174.363800,473.569336 
	C174.035583,474.037323 173.707382,474.505280 173.379181,474.973267 
	C172.036209,474.248291 170.693253,473.523285 169.163452,472.437134 
z"/>
<path fill="#DADADA" opacity="1.000000" stroke="none" 
	d="
M165.278137,465.547852 
	C164.655182,465.906097 163.895309,465.999237 162.567474,466.176819 
	C161.634583,466.024109 161.269623,465.786987 160.845154,465.328735 
	C161.395355,464.789551 162.005051,464.471466 162.936615,464.030212 
	C163.886063,464.365631 164.513657,464.824188 165.278137,465.547852 
z"/>
<path fill="#EEEEEE" opacity="1.000000" stroke="none" 
	d="
M448.093811,146.485199 
	C447.888977,147.057968 447.614227,147.419342 447.047211,147.960892 
	C446.432922,148.142166 446.168304,148.019470 445.884460,147.561737 
	C446.093048,146.970383 446.378296,146.590210 446.971008,146.024109 
	C447.600555,145.857437 447.849030,146.002655 448.093811,146.485199 
z"/>
<path fill="#C1C1C1" opacity="1.000000" stroke="none" 
	d="
M123.111969,351.865570 
	C123.113602,352.116852 123.084785,352.364044 123.055969,352.611206 
	C123.183647,352.616882 123.311317,352.622589 123.438995,352.628265 
	C123.433525,352.375092 123.428047,352.121918 123.243027,351.835693 
	C123.063492,351.802673 123.081505,351.861450 123.111969,351.865570 
z"/>
<path fill="#DADADA" opacity="1.000000" stroke="none" 
	d="
M175.192963,474.414978 
	C174.636475,474.920929 173.968140,474.876953 173.299789,474.832977 
	C173.370300,474.418396 173.440826,474.003815 173.511353,473.589233 
	C174.034592,473.681183 174.557846,473.773132 175.192963,474.414978 
z"/>
<path fill="#BDBDBD" opacity="1.000000" stroke="none" 
	d="
M474.493103,221.496704 
	C474.511505,221.499466 474.474670,221.493958 474.493103,221.496704 
z"/>
<path fill="#EEEEEE" opacity="1.000000" stroke="none" 
	d="
M458.416199,218.656876 
	C458.254272,219.583893 458.092346,220.510910 457.950256,220.532990 
	C458.118774,219.304337 458.267487,218.980606 458.416199,218.656876 
z"/>
<path fill="#EEEEEE" opacity="1.000000" stroke="none" 
	d="
M456.753418,219.355713 
	C456.998260,219.006058 457.281891,218.923843 457.993164,218.722351 
	C458.420807,218.603104 458.365845,218.634827 458.391022,218.645844 
	C458.267487,218.980606 458.118774,219.304337 457.670166,220.070312 
	C457.177551,220.216080 456.984863,219.919617 456.753418,219.355713 
z"/>
</svg>